<svg xmlns:xlink="http://www.w3.org/1999/xlink" xmlns="http://www.w3.org/2000/svg" fill="none">
<defs>
<symbol id="bag" viewBox="0 0 24 24">
<path fill-rule="evenodd" clip-rule="evenodd" d="M20.3158 8.50714H20.3158H20.3159H20.3159H20.316H20.316H20.3161H20.3161H20.3162H20.3162H20.3163H20.3163H20.3164H20.3164H20.3165H20.3165H20.3166H20.3166H20.3167H20.3167H20.3168H20.3168H20.3169H20.3169H20.317H20.317H20.3171H20.3172H20.3172H20.3173H20.3173C20.8815 8.50896 21.4451 8.51077 22.0068 8.51077C22.9249 8.51077 23.0397 8.57635 22.9905 9.46165C22.9044 11.1336 22.7907 12.8055 22.6769 14.4775V14.4775V14.4775V14.4775V14.4775V14.4776V14.4776V14.4776V14.4776V14.4777V14.4777V14.4777V14.4777V14.4778V14.4778V14.4778V14.4778V14.4778V14.4779V14.4779V14.4779V14.4779V14.478V14.478V14.478V14.478V14.4781V14.4781V14.4781V14.4781L22.6769 14.4785C22.639 15.0359 22.6011 15.5932 22.5642 16.1506C22.5232 16.7897 22.4904 17.4289 22.4577 18.068V18.0681V18.0681V18.0681V18.0681V18.0682V18.0682V18.0682V18.0682V18.0682V18.0683V18.0683V18.0683V18.0683V18.0684V18.0684V18.0684V18.0684V18.0685V18.0685V18.0685V18.0685V18.0685V18.0686V18.0686V18.0686V18.0686V18.0687V18.0687V18.0687V18.0687C22.4249 18.7081 22.3921 19.3475 22.3511 19.9869C22.3314 20.3672 22.3065 20.7476 22.2816 21.1279C22.2442 21.6985 22.2068 22.269 22.1872 22.8395C22.1715 23.4655 21.7525 23.4641 21.3295 23.4626L21.2691 23.4625H12.498H12.0882H3.15321C2.21873 23.4625 2.20234 23.4625 2.12036 22.528C1.90724 19.8065 1.69411 17.1015 1.46459 14.38C1.33343 12.8061 1.18588 11.2323 1.02194 9.65839C0.939963 8.82227 1.05472 8.65832 1.94002 8.65832C2.45918 8.65832 2.97834 8.66015 3.4975 8.66197H3.4977C4.53595 8.66561 5.57419 8.66925 6.61244 8.65832C7.85842 8.65832 7.87481 8.59275 8.08794 7.39595L8.15009 7.05279C8.39055 5.72246 8.63253 4.38374 9.05521 3.10061C9.33391 2.2481 9.89133 1.44477 10.4979 0.7726C11.4324 -0.276644 12.6456 -0.22746 13.662 0.739811C14.7769 1.78906 15.2687 3.14979 15.5966 4.55972C15.8425 5.62535 15.9901 6.70739 16.0884 7.78942C16.154 8.36322 16.3999 8.51077 16.9245 8.51077C18.0508 8.49984 19.1844 8.50349 20.3156 8.50714H20.3158ZM13.6129 2.00218C12.7931 0.690628 11.498 0.641445 10.6455 1.90382C9.43228 3.7072 9.0716 5.75651 9.03881 7.90418C9.03881 8.29765 9.21915 8.52717 9.62901 8.52717H15.072C15.072 8.29411 15.0782 8.08175 15.084 7.88348L15.084 7.88341C15.0945 7.52383 15.1037 7.21057 15.072 6.90412C14.9244 5.16631 14.531 3.49408 13.6129 2.00218ZM21.955 11.8198C21.9558 11.7877 21.9566 11.7557 21.9576 11.7241C21.9762 11.3437 21.9737 10.9581 21.9711 10.5405C21.9691 10.2201 21.9669 9.88091 21.974 9.51083H20.9576C18.2689 9.51083 15.5802 9.51493 12.8915 9.51903C10.2028 9.52313 7.51413 9.52723 4.82544 9.52723C4.59536 9.52723 4.3671 9.53089 4.13946 9.53454L4.13932 9.53454C3.68574 9.54182 3.23457 9.54906 2.77614 9.52723C2.18594 9.51083 1.97281 9.75675 2.022 10.3142C2.05479 10.683 2.08348 11.0519 2.11217 11.4208C2.14086 11.7897 2.16955 12.1585 2.20234 12.5274C2.21873 12.6586 2.34989 12.8553 2.46465 12.8881C3.23518 13.1012 3.15321 13.3143 2.62859 13.839C2.39584 14.0717 2.43415 14.6271 2.46864 15.1273C2.47303 15.1909 2.47735 15.2535 2.48104 15.3145C2.50746 15.7108 2.8107 15.6813 3.08189 15.6549C3.14721 15.6485 3.21068 15.6424 3.26797 15.6424C3.47017 15.6478 3.67237 15.6478 3.87397 15.6478H3.87399C4.27716 15.6478 4.67791 15.6478 5.07136 15.6915C5.24542 15.7147 5.39484 15.8529 5.54288 15.9899L5.54289 15.9899C5.604 16.0464 5.66487 16.1027 5.72714 16.1506C5.66315 16.185 5.59917 16.2269 5.53473 16.269C5.38456 16.3672 5.23197 16.467 5.07136 16.4785C4.57953 16.5031 4.0877 16.5 3.59588 16.4969C3.43193 16.4959 3.26798 16.4949 3.10403 16.4949C2.69417 16.4949 2.48104 16.6752 2.5958 17.1015C2.65318 17.3474 2.72286 17.5892 2.79253 17.831C2.86221 18.0728 2.93189 18.3146 2.98927 18.5606C3.02206 18.7081 3.00566 18.8721 2.98927 19.0196C2.97333 19.2348 2.94964 19.4538 2.92574 19.6749L2.92574 19.6749L2.92573 19.6749C2.90047 19.9086 2.87496 20.1445 2.85811 20.3803C2.82532 20.823 3.05485 21.0033 3.4975 21.0033C3.56592 21.0011 3.63467 20.9985 3.7036 20.9959L3.70447 20.9958C4.1307 20.9797 4.56398 20.9633 4.97299 21.0197C5.1555 21.0425 5.33007 21.1685 5.50222 21.2928C5.5775 21.3471 5.65232 21.4011 5.72714 21.446C5.6397 21.4897 5.55409 21.5443 5.46847 21.599C5.29724 21.7083 5.12601 21.8176 4.94021 21.8395C4.6779 21.8744 4.41559 21.8721 4.15327 21.8698H4.15322C3.92372 21.8677 3.69421 21.8657 3.46471 21.8886C3.36093 21.9002 3.26527 22.0171 3.17201 22.1311L3.172 22.1311C3.13266 22.1792 3.09376 22.2268 3.05485 22.2657C3.09212 22.2983 3.12808 22.3323 3.16383 22.366L3.16385 22.366L3.16389 22.3661L3.16396 22.3661C3.25397 22.4511 3.34275 22.535 3.44831 22.5936C3.50672 22.6286 3.59011 22.6221 3.67474 22.6154C3.70888 22.6127 3.74322 22.61 3.7762 22.61H3.77815C9.36801 22.61 14.9743 22.61 20.5641 22.5936C20.7936 22.5936 21.2199 22.3805 21.2363 22.2493C21.2633 21.8446 20.9683 21.8506 20.6894 21.8563C20.6294 21.8575 20.5701 21.8587 20.5149 21.8558C20.2758 21.8422 20.0368 21.8428 19.7977 21.8433C19.4629 21.8441 19.1282 21.8449 18.7935 21.8067C18.6594 21.7843 18.5482 21.6706 18.4339 21.5538C18.3805 21.4991 18.3263 21.4438 18.2689 21.3968C18.3201 21.3549 18.37 21.3063 18.4198 21.258L18.4198 21.2579L18.4198 21.2579L18.4198 21.2579L18.4199 21.2579L18.4199 21.2578L18.4199 21.2578L18.4199 21.2578L18.42 21.2578L18.42 21.2577L18.42 21.2577L18.42 21.2577L18.42 21.2577L18.4201 21.2577L18.4201 21.2576L18.4201 21.2576L18.4201 21.2576L18.4202 21.2576L18.4202 21.2575L18.4202 21.2575L18.4202 21.2575L18.4202 21.2575L18.4203 21.2574L18.4203 21.2574L18.4203 21.2574L18.4203 21.2574L18.4204 21.2574L18.4204 21.2573L18.4204 21.2573L18.4204 21.2573L18.4205 21.2572C18.5455 21.1356 18.6693 21.015 18.8099 21.0033C19.0558 20.9705 19.3017 20.9746 19.5476 20.9787H19.5477C19.7936 20.9828 20.0395 20.9869 20.2854 20.9542C20.6297 20.9214 21.1871 20.823 21.2527 20.6263C21.2762 20.5534 21.3034 20.4788 21.331 20.4031C21.4961 19.9508 21.6763 19.4573 21.1707 19.036C20.9084 18.8065 20.892 18.6097 21.1707 18.3638C21.7335 17.8479 21.6702 17.183 21.6062 16.5111L21.597 16.4129H21.0231C20.728 16.4063 20.4329 16.405 20.1378 16.4037C19.6952 16.4017 19.2525 16.3998 18.8099 16.3801C18.6831 16.3686 18.5644 16.2679 18.4481 16.1692C18.399 16.1276 18.3503 16.0863 18.3017 16.0522C18.338 16.0118 18.3733 15.9685 18.4089 15.9248L18.409 15.9247L18.409 15.9247L18.409 15.9247L18.409 15.9247L18.409 15.9247L18.409 15.9247L18.409 15.9247L18.4091 15.9247L18.4091 15.9247L18.4091 15.9246L18.4091 15.9246L18.4091 15.9246C18.5179 15.7911 18.6289 15.6549 18.7771 15.5932C18.9178 15.5292 19.0985 15.5351 19.2723 15.5408C19.3212 15.5424 19.3697 15.544 19.4165 15.544H21.5806C21.6024 15.3841 21.6484 15.2201 21.6942 15.0566C21.8552 14.4825 22.0147 13.9139 21.1215 13.5439C21.0887 13.5275 21.1543 13.0192 21.2199 13.0028C21.9285 12.8642 21.9423 12.3202 21.955 11.8198ZM13.5742 13.4914C13.4662 13.6131 13.3585 13.7345 13.2356 13.7568C12.9521 13.8084 12.6484 13.789 12.3563 13.7704L12.3563 13.7704L12.3562 13.7704L12.3562 13.7704C12.2766 13.7654 12.1979 13.7603 12.1208 13.7568V13.806C12.0489 13.8034 11.9775 13.8011 11.9065 13.7989C11.5397 13.7875 11.1827 13.7763 10.8256 13.7077C10.7251 13.6853 10.6398 13.5642 10.5542 13.4425C10.5141 13.3855 10.474 13.3285 10.4321 13.2814C10.4758 13.2487 10.5194 13.2032 10.5636 13.1572C10.6524 13.0648 10.7435 12.9699 10.842 12.9699C11.6453 12.9371 12.465 12.9371 13.2684 12.9699C13.3751 12.9699 13.4904 13.09 13.6018 13.206L13.6018 13.206L13.6018 13.206L13.6019 13.2061L13.6019 13.2061L13.6019 13.2061L13.6019 13.2061L13.6019 13.2061L13.6019 13.2061L13.6019 13.2061L13.6019 13.2061L13.6019 13.2061L13.6019 13.2061L13.6019 13.2061L13.6019 13.2061L13.6019 13.2061L13.6019 13.2061L13.6019 13.2061L13.6019 13.2061L13.6019 13.2061L13.6019 13.2062L13.602 13.2062L13.602 13.2062L13.602 13.2062L13.602 13.2062L13.602 13.2062L13.602 13.2062L13.602 13.2062L13.6021 13.2063C13.6446 13.2506 13.6866 13.2944 13.7274 13.3306C13.6752 13.3776 13.6247 13.4345 13.5742 13.4914L13.5742 13.4914ZM16.3509 21.4462C16.3837 21.3478 16.2034 21.0855 16.1214 21.0691C15.2033 21.0527 14.2852 21.0363 13.3671 21.0855C13.2688 21.0855 13.1212 21.3478 13.1048 21.5118C13.0884 21.5937 13.318 21.7741 13.4327 21.7905C13.7401 21.8151 14.0475 21.812 14.3549 21.8089C14.4574 21.8079 14.5598 21.8069 14.6623 21.8069C14.7894 21.8069 14.9151 21.8096 15.0402 21.8123C15.351 21.8189 15.6583 21.8256 15.9739 21.7905C16.1214 21.7741 16.2854 21.5937 16.3509 21.4462ZM18.695 10.2482C19.5147 10.199 20.3181 10.199 21.1378 10.2318C21.2574 10.2318 21.3683 10.3627 21.4768 10.4908C21.517 10.5383 21.5569 10.5854 21.5968 10.6253C21.5399 10.6667 21.4847 10.7162 21.4295 10.7657C21.3098 10.873 21.1905 10.9799 21.0558 11.0024C20.8032 11.0483 20.5345 11.0379 20.2666 11.0276C20.152 11.0232 20.0376 11.0188 19.9246 11.0188C19.8112 11.0188 19.6992 11.0215 19.5881 11.0242C19.3138 11.0309 19.0454 11.0374 18.777 11.0024C18.6568 10.9805 18.5511 10.8858 18.4455 10.7911C18.3926 10.7437 18.3398 10.6963 18.2852 10.6581C18.3228 10.6157 18.3605 10.5639 18.3985 10.5115L18.3985 10.5115C18.493 10.3815 18.5898 10.2482 18.695 10.2482ZM17.686 12.9485H17.6859C17.5688 12.9512 17.4517 12.9539 17.3346 12.9539V12.9375C17.2175 12.9375 17.1004 12.9348 16.9833 12.9321C16.6906 12.9254 16.3978 12.9187 16.105 12.9539C15.9956 12.9648 15.8936 13.0706 15.7939 13.1739C15.7442 13.2255 15.6951 13.2763 15.646 13.3145C15.6795 13.3529 15.7145 13.401 15.75 13.4499C15.836 13.5684 15.9254 13.6916 16.0067 13.6916C16.8756 13.7244 17.7445 13.7244 18.6134 13.6916C18.7281 13.6916 18.9413 13.4293 18.9249 13.3145C18.9249 13.1834 18.7118 12.9866 18.5642 12.9703C18.2715 12.9351 17.9787 12.9418 17.686 12.9485ZM11.8657 19.2257C11.5009 19.2142 11.1575 19.2033 10.8258 19.1342C10.7131 19.1092 10.6195 18.9597 10.5304 18.8174L10.5304 18.8173C10.5029 18.7734 10.4758 18.7302 10.4487 18.6916C10.4924 18.6588 10.536 18.6134 10.5802 18.5674L10.5802 18.5673C10.669 18.475 10.7601 18.3801 10.8586 18.3801C11.6619 18.3473 12.4816 18.3473 13.3014 18.3801C13.4107 18.391 13.5054 18.5039 13.6001 18.6169C13.6475 18.6733 13.6948 18.7298 13.744 18.7735C13.7053 18.8123 13.668 18.8567 13.6308 18.901C13.5422 19.0066 13.4545 19.1111 13.3505 19.1342C13.0699 19.1774 12.7822 19.1921 12.5014 19.2065C12.3557 19.214 12.2118 19.2214 12.0718 19.2326C12.0023 19.23 11.9336 19.2278 11.8657 19.2257ZM8.16989 10.9704C8.49009 10.995 8.81954 10.9919 9.14434 10.9888H9.14436H9.14439H9.1444H9.14441H9.14443H9.14444H9.14446H9.14448H9.1445H9.14451H9.14453H9.14455H9.14456H9.14458H9.1446H9.14462H9.14463H9.14465H9.14467H9.14468H9.1447H9.14472H9.14474H9.14475H9.14477C9.25221 10.9878 9.35913 10.9868 9.46505 10.9868C9.57097 10.9868 9.6779 10.9878 9.78534 10.9888H9.78536H9.78537H9.78539H9.78541H9.78542H9.78544H9.78546H9.78548H9.78549H9.78551H9.78553H9.78554H9.78556H9.78558H9.7856H9.78561H9.78563H9.78565H9.78566H9.78568H9.7857H9.78571H9.78573H9.78574H9.78576C10.1106 10.9919 10.44 10.995 10.7602 10.9704C10.8914 10.954 11.1045 10.7737 11.0881 10.6917C11.0717 10.5441 10.9242 10.2818 10.8258 10.2818C9.9241 10.2654 9.00601 10.2818 8.10431 10.3146C8.00595 10.3146 7.8584 10.5441 7.8584 10.6589C7.87479 10.79 8.05513 10.954 8.16989 10.9704ZM14.4236 10.9883C14.0988 10.9914 13.7693 10.9945 13.4491 10.9699C13.318 10.9699 13.0884 10.7731 13.1048 10.7239C13.1376 10.56 13.2688 10.3141 13.3835 10.3141C14.2688 10.2649 15.1541 10.2649 16.0394 10.2813C16.1542 10.2977 16.3509 10.5436 16.3345 10.6748C16.3181 10.7895 16.105 10.9699 15.9575 10.9862C15.6768 11.0213 15.3878 11.0147 15.0964 11.008C14.9793 11.0053 14.8618 11.0026 14.7443 11.0026V10.9862C14.6382 10.9862 14.5312 10.9873 14.4236 10.9883H14.4236H14.4236H14.4236H14.4236ZM4.44821 12.1504C4.437 12.0383 4.33374 11.9338 4.23287 11.8318C4.18628 11.7847 4.14019 11.738 4.10393 11.6914C4.06477 11.7257 4.01537 11.7599 3.96534 11.7946L3.96534 11.7947C3.84783 11.8762 3.72686 11.9601 3.72686 12.0521C3.69407 12.9046 3.71046 13.7735 3.74325 14.626C3.74325 14.7105 3.84528 14.7814 3.95294 14.8562C4.01243 14.8975 4.07365 14.94 4.12032 14.9867C4.15835 14.9324 4.20538 14.8798 4.25187 14.8279C4.34567 14.7232 4.43725 14.6209 4.44821 14.5112C4.48334 14.2419 4.47665 13.9726 4.46996 13.7032C4.46728 13.5955 4.46461 13.4878 4.46461 13.38C4.46461 13.2569 4.46734 13.1351 4.47005 13.0147C4.47671 12.7183 4.48319 12.4302 4.44821 12.1504ZM9.65016 11.842C9.742 11.9388 9.83105 12.0326 9.84235 12.1343C9.8731 12.3906 9.8718 12.6469 9.87052 12.8992C9.86975 13.0504 9.86899 13.2001 9.87513 13.3475C9.87513 13.4646 9.87781 13.5817 9.88049 13.6988C9.88718 13.9915 9.89387 14.2843 9.85874 14.577C9.84235 14.7246 9.64561 14.9541 9.53085 14.9541C9.3833 14.9705 9.13738 14.7574 9.13738 14.6426C9.1046 13.7737 9.1046 12.9048 9.13738 12.0359C9.13738 11.9617 9.2471 11.8943 9.3601 11.8249C9.42182 11.787 9.48452 11.7485 9.53085 11.708C9.56658 11.7539 9.60865 11.7983 9.65016 11.842ZM15.0719 12.0684C15.0555 11.9372 14.8588 11.7733 14.7112 11.7241C14.6456 11.6913 14.3997 11.9044 14.3997 12.0028C14.3669 12.8881 14.3669 13.7734 14.3833 14.6587C14.3833 14.7735 14.6456 14.9702 14.7768 14.9538C14.8916 14.9374 15.0883 14.7243 15.1047 14.5767C15.1398 14.2961 15.1331 14.007 15.1265 13.7156C15.1238 13.5985 15.1211 13.481 15.1211 13.3635H15.1047C15.0985 13.2038 15.0993 13.0417 15.1001 12.8791V12.879V12.879C15.1014 12.6077 15.1026 12.3348 15.0719 12.0684ZM8.4324 13.2816C8.4488 13.3963 8.25206 13.675 8.1373 13.675C7.47409 13.6996 6.81087 13.6966 6.14076 13.6935H6.14059H6.14041H6.14023H6.14004H6.13986H6.13968H6.1395H6.13931H6.13913H6.13894H6.13876H6.13857H6.13838H6.13819H6.138H6.13781H6.13762H6.13743H6.13724H6.13704C5.91388 13.6925 5.68996 13.6914 5.46501 13.6914C5.35025 13.6914 5.15351 13.4455 5.16991 13.3799C5.21909 13.216 5.38304 13.0193 5.51419 13.0029C5.85366 12.9506 6.20352 12.94 6.54722 12.9296H6.54723C6.6351 12.9269 6.72256 12.9242 6.80935 12.9209V12.9537C6.92646 12.9537 7.04356 12.951 7.16066 12.9483H7.16068C7.45343 12.9416 7.74618 12.935 8.03894 12.9701C8.18648 12.9865 8.41601 13.1668 8.4324 13.2816ZM6.43189 17.2161C6.44318 17.3177 6.53223 17.4116 6.62406 17.5084C6.66558 17.5521 6.70765 17.5964 6.74338 17.6424C6.78971 17.6018 6.85241 17.5633 6.91413 17.5254C7.02713 17.4561 7.13685 17.3887 7.13685 17.3145C7.16964 16.4456 7.16964 15.5767 7.15324 14.7078C7.15324 14.593 6.90732 14.3799 6.75978 14.3799C6.64501 14.3799 6.44828 14.6094 6.43189 14.757C6.39676 15.0497 6.40345 15.3425 6.41014 15.6352C6.41282 15.7523 6.41549 15.8694 6.41549 15.9865C6.41549 16.1035 6.41282 16.2217 6.41015 16.3401C6.40346 16.6369 6.39673 16.9349 6.43189 17.2161ZM10.8588 15.7247C10.9572 15.7247 11.1047 15.9542 11.0883 16.069C11.0719 16.1837 10.8916 16.3477 10.7768 16.3805C10.4374 16.4327 10.0875 16.4433 9.74378 16.4538C9.65592 16.4564 9.56846 16.4591 9.48167 16.4624V16.4297C9.37895 16.4297 9.27623 16.4307 9.17376 16.4317C8.8674 16.4348 8.56334 16.4378 8.26848 16.4133C8.10454 16.3969 7.89141 16.2493 7.85862 16.1182C7.82583 16.0034 8.02257 15.7083 8.12093 15.7083C9.03902 15.6755 9.94072 15.6919 10.8588 15.7247ZM15.9739 16.3799C16.0675 16.3681 16.1612 16.2561 16.2489 16.1512L16.2489 16.1512C16.284 16.1092 16.3181 16.0684 16.3509 16.0356C16.3187 15.9988 16.2865 15.9542 16.254 15.9092L16.254 15.9092C16.1705 15.7937 16.0846 15.6749 15.9903 15.6749C15.1542 15.6421 14.318 15.6257 13.4819 15.6585C13.3822 15.6585 13.29 15.7783 13.1951 15.9015C13.1496 15.9606 13.1035 16.0205 13.0557 16.0684C13.1129 16.1084 13.1662 16.1585 13.2189 16.2081C13.3172 16.3005 13.4137 16.3913 13.5311 16.4126C13.8004 16.4478 14.0698 16.4411 14.3391 16.4344C14.4468 16.4317 14.5546 16.429 14.6623 16.429V16.4126C14.839 16.4061 15.0157 16.4048 15.1914 16.4035H15.1914H15.1914H15.1914H15.1914H15.1914H15.1915H15.1915H15.1915H15.1915H15.1915H15.1915H15.1916H15.1916H15.1916H15.1916H15.1916H15.1917C15.4559 16.4015 15.7179 16.3995 15.9739 16.3799ZM9.61996 17.208C9.73214 17.3155 9.8468 17.4255 9.85865 17.544C9.89378 17.8368 9.88709 18.1295 9.8804 18.4223C9.87772 18.5394 9.87504 18.6565 9.87504 18.7736C9.87504 18.887 9.87777 18.999 9.88047 19.1101C9.88714 19.3844 9.89366 19.6528 9.85865 19.9212C9.83622 20.0333 9.72944 20.1301 9.62222 20.2273C9.57268 20.2722 9.52303 20.3172 9.48158 20.3638C9.43923 20.3215 9.38661 20.2809 9.33479 20.2408C9.22612 20.1569 9.1209 20.0756 9.1209 19.9868C9.08811 19.1507 9.10451 18.2981 9.13729 17.462C9.13729 17.3732 9.24252 17.2919 9.35118 17.208C9.40301 17.168 9.45562 17.1273 9.49797 17.085C9.53432 17.1259 9.57696 17.1667 9.61996 17.208ZM15.1046 17.5768C15.0934 17.4533 14.9977 17.3453 14.9016 17.2368C14.8573 17.1868 14.8129 17.1367 14.7767 17.085C14.7353 17.1218 14.686 17.1587 14.6362 17.196C14.509 17.2912 14.3787 17.3888 14.3669 17.4948C14.3177 18.3145 14.3177 19.1179 14.3505 19.9376C14.3505 20.0233 14.4696 20.1091 14.5888 20.1949C14.6519 20.2403 14.7149 20.2857 14.7603 20.3311C14.7966 20.2793 14.8409 20.2293 14.8852 20.1793C14.9813 20.0708 15.077 19.9627 15.0882 19.8392C15.1232 19.5708 15.1167 19.3024 15.1101 19.0281C15.1074 18.917 15.1046 18.805 15.1046 18.6916C15.107 18.6417 15.1097 18.5907 15.1125 18.5388V18.5388C15.1288 18.2335 15.1467 17.8991 15.1046 17.5768ZM8.32564 18.8273C8.21908 18.9503 8.11252 19.0733 8.00595 19.0852C7.18623 19.1343 6.3829 19.1343 5.57958 19.1016C5.47959 19.0904 5.38714 18.9739 5.29201 18.8541C5.24675 18.7971 5.20089 18.7393 5.15332 18.6917C5.20127 18.6533 5.24781 18.6094 5.29377 18.5659L5.2938 18.5659L5.29384 18.5659L5.29385 18.5659L5.29386 18.5659L5.29388 18.5658L5.29389 18.5658L5.29391 18.5658L5.29392 18.5658C5.40507 18.4608 5.51281 18.359 5.62876 18.3474C5.90943 18.3123 6.19844 18.319 6.48984 18.3256H6.48987H6.48996H6.49005H6.49014H6.49023H6.49032H6.49041H6.4905H6.49059H6.49068H6.49077H6.49086H6.49095H6.49105H6.49114C6.60782 18.3283 6.72488 18.331 6.84195 18.331C6.93975 18.331 7.03887 18.3284 7.13856 18.3257H7.1386C7.38985 18.319 7.64472 18.3122 7.89119 18.3474C8.02559 18.3698 8.15234 18.4687 8.27666 18.5657C8.33432 18.6107 8.39146 18.6553 8.4486 18.6917C8.40763 18.7327 8.36665 18.78 8.32568 18.8273L8.32564 18.8273ZM17.3346 18.3476C17.2175 18.3476 17.1004 18.3449 16.9833 18.3423C16.6906 18.3356 16.3978 18.3289 16.105 18.364C15.9901 18.3755 15.8832 18.4918 15.7786 18.6055C15.7341 18.654 15.6901 18.7019 15.646 18.7411C15.6855 18.7806 15.7235 18.8275 15.7614 18.8743C15.8492 18.9828 15.9363 19.0903 16.0395 19.1018C16.8756 19.1346 17.7281 19.1346 18.5642 19.1018C18.651 19.1018 18.7306 18.994 18.8126 18.8831C18.8545 18.8265 18.8969 18.769 18.9413 18.7247C18.902 18.6897 18.8626 18.6501 18.823 18.6102C18.7139 18.5003 18.6025 18.3881 18.4822 18.364C18.2138 18.329 17.9454 18.3355 17.6711 18.3422L17.671 18.3422C17.5599 18.3449 17.448 18.3476 17.3346 18.3476ZM8.26826 21.0363C9.10438 21.0035 9.94049 21.0035 10.7766 21.0363C10.8914 21.0363 11.1045 21.2822 11.1045 21.4134C11.1045 21.5445 10.8914 21.7577 10.7602 21.7741C10.4207 21.8263 10.0709 21.8369 9.72716 21.8474C9.6393 21.85 9.55184 21.8527 9.46505 21.856V21.8232C9.35732 21.8232 9.24959 21.8259 9.14185 21.8286H9.14182C8.87249 21.8353 8.60316 21.842 8.33384 21.8068C8.21618 21.7962 8.11945 21.7017 8.0209 21.6055C7.9684 21.5542 7.91538 21.5025 7.8584 21.4626C7.91055 21.4104 7.9586 21.3419 8.00546 21.2751C8.09117 21.1528 8.17286 21.0363 8.26826 21.0363ZM16.9244 17.2329C16.936 17.3498 17.0561 17.45 17.1775 17.5514C17.2264 17.5922 17.2755 17.6332 17.3178 17.6756C17.3546 17.6434 17.3992 17.6112 17.4442 17.5786C17.5597 17.4951 17.6785 17.4093 17.6785 17.3149C17.7113 16.4788 17.7113 15.6427 17.6785 14.8066C17.6785 14.7174 17.5496 14.6282 17.4208 14.539L17.4207 14.539L17.4207 14.539L17.4207 14.539L17.4207 14.5389L17.4207 14.5389L17.4206 14.5389L17.4206 14.5389L17.4206 14.5389L17.4206 14.5389L17.4206 14.5389L17.4206 14.5388C17.36 14.4969 17.2994 14.455 17.2522 14.4131C17.2119 14.4707 17.1615 14.5263 17.1116 14.5812C17.0195 14.6827 16.9292 14.7822 16.908 14.8885C16.8728 15.1463 16.8795 15.4209 16.8862 15.6942V15.6942C16.8889 15.8033 16.8916 15.9122 16.8916 16.0197H16.908C16.908 16.1312 16.9053 16.244 16.9027 16.3578V16.3578C16.896 16.6455 16.8891 16.9392 16.9244 17.2329ZM19.5803 12.0678C19.5803 11.9367 19.8098 11.7235 19.9409 11.7235C20.0721 11.7072 20.2852 11.9203 20.3016 12.0678C20.3541 12.4088 20.3646 12.7498 20.3751 13.0909C20.3777 13.1761 20.3803 13.2614 20.3836 13.3466C20.3804 13.4291 20.3778 13.511 20.3753 13.5923V13.5924V13.5924V13.5925V13.5925C20.3647 13.9311 20.3545 14.259 20.3016 14.5762C20.2852 14.7073 20.0721 14.9205 19.9409 14.9205C19.8262 14.9205 19.5803 14.7073 19.5803 14.5762C19.5475 13.7401 19.5475 12.9039 19.5803 12.0678ZM4.44831 17.5278C4.43767 17.4321 4.35801 17.3432 4.2765 17.2523L4.27649 17.2523C4.23239 17.2032 4.18775 17.1534 4.15321 17.1016C4.1031 17.1461 4.03786 17.1888 3.97355 17.2308C3.8485 17.3126 3.72695 17.392 3.72695 17.4786C3.69416 18.3148 3.69416 19.1509 3.74335 19.987C3.74335 20.0813 3.86213 20.1672 3.97763 20.2507C4.02268 20.2833 4.06722 20.3155 4.10403 20.3477C4.14029 20.301 4.18637 20.2544 4.23297 20.2073C4.33383 20.1052 4.43709 20.0008 4.44831 19.8886C4.48344 19.6193 4.47675 19.3499 4.47006 19.0806C4.46738 18.9729 4.4647 18.8651 4.4647 18.7574C4.4647 18.6403 4.46738 18.5232 4.47006 18.4061C4.47675 18.1133 4.48344 17.8206 4.44831 17.5278ZM20.1087 20.1985L20.1086 20.1985L20.1085 20.1986L20.1085 20.1987L20.1085 20.1987L20.1085 20.1987L20.1085 20.1987L20.1085 20.1987L20.1085 20.1987C20.0619 20.2475 20.0148 20.2969 19.974 20.3479C19.9202 20.294 19.8533 20.2424 19.7892 20.1929L19.7892 20.1929C19.6776 20.1068 19.5746 20.0273 19.5641 19.9544C19.5314 19.1347 19.5314 18.3314 19.5641 17.5116C19.5641 17.4133 19.6662 17.3295 19.7682 17.2457C19.8192 17.2038 19.8702 17.1619 19.9084 17.1182C19.9499 17.155 19.9992 17.1919 20.049 17.2292C20.1761 17.3244 20.3065 17.422 20.3183 17.528C20.3534 17.8087 20.3467 18.0977 20.3401 18.3891V18.3891V18.3892V18.3893V18.3894V18.3895V18.3896V18.3897V18.3898V18.3899C20.3374 18.5067 20.3347 18.624 20.3347 18.7412H20.3511C20.3511 18.8489 20.3538 18.9567 20.3564 19.0644C20.3631 19.3338 20.3698 19.6031 20.3347 19.8724C20.3121 19.9853 20.2118 20.0904 20.1087 20.1985ZM5.71079 10.6419C5.67428 10.6002 5.63776 10.5468 5.60125 10.4935C5.523 10.3791 5.44476 10.2648 5.36651 10.2648C4.53039 10.232 3.69428 10.232 2.87456 10.2648C2.79631 10.2648 2.71806 10.3791 2.63982 10.4935L2.63981 10.4935C2.6033 10.5468 2.56679 10.6002 2.53027 10.6419C2.57652 10.6779 2.62277 10.7219 2.66952 10.7664C2.77193 10.8639 2.87676 10.9637 2.98932 10.9862C3.25865 11.0213 3.52798 11.0146 3.79731 11.0079H3.79733C3.90506 11.0053 4.0128 11.0026 4.12053 11.0026C4.22827 11.0026 4.336 11.0053 4.44374 11.0079H4.44376C4.71309 11.0146 4.98242 11.0213 5.25175 10.9862C5.37477 10.975 5.4749 10.8723 5.57296 10.7717C5.61865 10.7248 5.66389 10.6784 5.71079 10.6419ZM12.1046 14.5107C12.2357 14.5271 12.4325 14.7239 12.4489 14.8714C12.4796 15.1172 12.4783 15.3695 12.477 15.6241V15.6241V15.6241V15.6242V15.6242V15.6242V15.6242C12.4763 15.7771 12.4755 15.9309 12.4817 16.0846H12.5308C12.5186 16.2376 12.5132 16.3906 12.5079 16.5428C12.4989 16.7982 12.49 17.0512 12.4489 17.2978C12.4325 17.4453 12.2193 17.6421 12.0882 17.6421C11.957 17.6421 11.7111 17.4289 11.7111 17.3142C11.6783 16.4781 11.6783 15.6419 11.7111 14.8058C11.7111 14.6911 11.9734 14.4943 12.1046 14.5107ZM6.72726 19.8226C6.65344 19.812 6.54569 20.0932 6.42148 20.4173L6.42148 20.4173L6.42144 20.4174C6.35258 20.5971 6.27865 20.7901 6.20264 20.9538C6.27692 21.0909 6.3532 21.2639 6.42661 21.4304L6.42665 21.4305L6.42666 21.4305L6.42667 21.4305C6.56385 21.7417 6.69101 22.0301 6.77644 22.0194C7.26664 21.9617 7.237 21.511 7.21157 21.1244C7.20808 21.0714 7.20467 21.0196 7.2027 20.9702C7.2055 20.8944 7.21406 20.8134 7.2228 20.7308C7.26514 20.3302 7.31162 19.8905 6.72726 19.8226ZM16.9007 20.4094C16.8967 20.1125 16.8926 19.8101 17.3178 19.8226C17.4654 19.8226 17.6621 20.3964 17.7277 20.7243C17.7933 21.003 17.7605 21.3309 17.6949 21.6096C17.6597 21.7268 17.5492 21.8356 17.4412 21.942C17.398 21.9845 17.3553 22.0266 17.3178 22.0687C17.2767 22.0173 17.2292 21.9676 17.1813 21.9175L17.1813 21.9174C17.0763 21.8075 16.9694 21.6956 16.9244 21.5605C16.8784 21.434 16.8888 21.2752 16.8992 21.1182C16.9036 21.0513 16.908 20.9847 16.908 20.9211H16.8916C16.8916 20.8937 16.8897 20.8664 16.8879 20.8391C16.8843 20.7844 16.8806 20.7298 16.8916 20.6752C16.9032 20.5935 16.902 20.5017 16.9007 20.4094ZM12.0879 12.265C12.1884 12.2762 12.327 11.983 12.4673 11.6862C12.533 11.5472 12.599 11.4075 12.6617 11.2977C12.6371 11.2813 12.6167 11.269 12.5962 11.2568C12.5757 11.2445 12.5552 11.2322 12.5306 11.2158C12.5251 11.1338 12.5251 11.05 12.5251 10.9668V10.9668C12.5251 10.8004 12.5251 10.6365 12.4814 10.4944C12.4377 10.3851 12.3357 10.2904 12.2337 10.1957C12.1827 10.1483 12.1316 10.1009 12.0879 10.0518C12.0442 10.1009 11.9932 10.1483 11.9422 10.1957C11.8402 10.2904 11.7382 10.3851 11.6945 10.4944C11.6289 10.7239 11.6289 10.9862 11.6617 11.2158C11.665 11.2985 11.6603 11.3879 11.6555 11.4785C11.6367 11.8366 11.6169 12.2127 12.0879 12.265ZM17.6848 11.684C17.5492 11.9518 17.4185 12.2101 17.3016 12.1994C16.8635 12.1744 16.8841 11.8436 16.9038 11.5279C16.9099 11.4302 16.9159 11.3339 16.9081 11.2486C16.8917 11.1338 16.8917 11.0354 16.9081 10.9207C16.9143 10.8529 16.9152 10.7799 16.9162 10.7061C16.9203 10.3869 16.9247 10.0518 17.3508 10.0518C17.446 10.0518 17.5499 10.3545 17.6499 10.6459L17.65 10.6459C17.6876 10.7557 17.7247 10.8638 17.7606 10.9535C17.7715 10.9972 17.7679 11.0555 17.7643 11.1138C17.7624 11.1429 17.7606 11.172 17.7606 11.1994C17.8098 11.2158 17.859 11.2486 17.9082 11.2813C17.8332 11.3908 17.7583 11.5388 17.6848 11.684ZM6.44869 11.8714C6.46992 11.967 6.55991 12.0419 6.65187 12.1185C6.70191 12.1601 6.75253 12.2023 6.79297 12.2485C6.82217 12.223 6.8538 12.1974 6.88588 12.1715C6.99792 12.081 7.11541 11.9861 7.15365 11.8714C7.23562 11.6255 7.25201 11.3304 7.23562 11.0681C7.23242 10.9881 7.23609 10.9025 7.23981 10.8158C7.25512 10.4587 7.27115 10.0848 6.80936 10.0189C6.70609 10.0074 6.56267 10.3172 6.42406 10.6165C6.36462 10.7449 6.30607 10.8713 6.25195 10.9697C6.27654 10.9861 6.29703 10.9984 6.31752 11.0107L6.31753 11.0107L6.31754 11.0107C6.33803 11.023 6.35852 11.0353 6.38311 11.0517C6.38802 11.1353 6.38852 11.2188 6.38901 11.3019V11.302C6.39016 11.4961 6.39129 11.6878 6.44869 11.8714ZM12.5064 20.7822C12.5034 20.8132 12.5005 20.8434 12.498 20.8725C12.4901 20.9755 12.5013 21.0919 12.5127 21.2101C12.5485 21.5812 12.586 21.9703 12.0389 22.0201C11.9411 22.0309 11.8143 21.7244 11.6731 21.3828C11.6014 21.2094 11.526 21.027 11.4487 20.8725C11.5216 20.751 11.5945 20.6122 11.6653 20.4775C11.8332 20.1577 11.9892 19.8609 12.1045 19.8724C12.5886 19.9329 12.5422 20.4123 12.5064 20.7822Z"></path>
</symbol>

<symbol id="search" viewBox="0 0 24 24">
<path fill-rule="evenodd" clip-rule="evenodd" d="M4 10.5C4 6.91015 6.91015 4 10.5 4C14.0899 4 17 6.91015 17 10.5C17 14.0899 14.0899 17 10.5 17C6.91015 17 4 14.0899 4 10.5ZM10.5 3C6.35786 3 3 6.35786 3 10.5C3 14.6421 6.35786 18 10.5 18C12.1354 18 13.6485 17.4766 14.881 16.5881L20.1464 21.8536L20.8536 21.1464L15.6548 15.9477C17.0991 14.5807 18 12.6456 18 10.5C18 6.35786 14.6421 3 10.5 3Z"></path>
</symbol>
</defs>
</svg>